<?xml version="1.0" encoding="UTF-8"?>
<!DOCTYPE svg PUBLIC "-//W3C//DTD SVG 1.1//EN" "http://www.w3.org/Graphics/SVG/1.1/DTD/svg11.dtd">
<!-- Creator: CorelDRAW -->
<svg xmlns="http://www.w3.org/2000/svg" xml:space="preserve" width="38px" height="38px" style="shape-rendering:geometricPrecision; text-rendering:geometricPrecision; image-rendering:optimizeQuality; fill-rule:evenodd; clip-rule:evenodd;background:#000"
viewBox="0 0 6.72 6.72"
 xmlns:xlink="http://www.w3.org/1999/xlink" fil1="#fff">
 <defs>
  <style type="text/css">
   <![CDATA[
    .fil0 {fill:black}
    .fil1 {fill:white;fill-rule:nonzero}
   ]]>
  </style>
 </defs>
 <rect className="fil0"/>
 <g id="Layer_x0020_1">
  <metadata id="CorelCorpID_0Corel-Layer"/>
  <path className="fil1" d="M2.20066 2.16289l3.63934 0c0.0441811,0 0.08,0.0358189 0.08,0.08 0,0.00951969 -0.00166929,0.0186535 -0.00472047,0.027122l-0.652622 2.54254 -7.08661e-005 0.000299213c-0.00940945,0.0366654 -0.0423937,0.0607441 -0.0786693,0.0600118l-2.33024 0c-0.0398976,0 -0.0729724,-0.0292087 -0.0790118,-0.0674094l-0.652677 -2.54275 -0.000330709 8.26772e-005c-0.0109843,-0.0427953 0.0148031,-0.0863937 0.0575984,-0.097378 0.00716535,-0.00183858 0.0143504,-0.00264173 0.0214055,-0.00251181zm0.429008 0.644402c-0.0441811,0 -0.08,0.0358189 -0.08,0.08 0,0.0441811 0.0358189,0.08 0.08,0.08l2.77981 0c0.0441811,0 0.08,-0.0358189 0.08,-0.08 0,-0.0441811 -0.0358189,-0.08 -0.08,-0.08l-2.77981 0zm0.287858 0.315815c-0.0441811,0 -0.08,0.0358189 -0.08,0.08 0,0.0441811 0.0358189,0.08 0.08,0.08l2.2041 0c0.0441811,0 0.08,-0.0358189 0.08,-0.08 0,-0.0441811 -0.0358189,-0.08 -0.08,-0.08l-2.2041 0zm0.320882 0.315811c-0.0441811,0 -0.08,0.0358189 -0.08,0.08 0,0.0441811 0.0358189,0.08 0.08,0.08l1.56233 0c0.0441811,0 0.08,-0.0358189 0.08,-0.08 0,-0.0441811 -0.0358189,-0.08 -0.08,-0.08l-1.56233 0z"/>
  <path className="fil1" d="M3.37513 5.42396c-0.0584213,0.0584213 -0.139134,0.094563 -0.228272,0.094563 -0.0891417,0 -0.169858,-0.0361417 -0.228272,-0.094563 -0.0584213,-0.0584134 -0.094563,-0.13913 -0.094563,-0.228272 0,-0.0891378 0.0361417,-0.16985 0.094563,-0.228272 0.0584252,-0.0584173 0.139138,-0.0945591 0.228272,-0.0945591 0.0891378,0 0.169854,0.0361417 0.228268,0.094563 0.0584213,0.0584134 0.094563,0.13913 0.094563,0.228268 0,0.0891339 -0.0361417,0.169846 -0.0945591,0.228272z"/>
  <path className="fil1" d="M4.89228 5.51852c-0.0891378,0 -0.16985,-0.0361417 -0.228272,-0.094563 -0.0584173,-0.0584252 -0.0945591,-0.139138 -0.0945591,-0.228272 0,-0.0891378 0.0361417,-0.169854 0.094563,-0.228268 0.0584134,-0.0584213 0.13913,-0.094563 0.228268,-0.094563 0.0891339,0 0.169846,0.0361417 0.228272,0.0945591 0.0584213,0.0584213 0.094563,0.139134 0.094563,0.228272 0,0.0891417 -0.0361417,0.169858 -0.094563,0.228272 -0.0584134,0.0584213 -0.13913,0.094563 -0.228272,0.094563z"/>
  <path className="fil1" d="M0.88 1.20148c-0.0441811,0 -0.08,0.0358189 -0.08,0.08 0,0.0441811 0.0358189,0.08 0.08,0.08l1.00026 0 0.241693 0.902028c0.0113898,0.0426299 0.055185,0.0679528 0.097815,0.056563 0.0426299,-0.0113898 0.0679528,-0.055185 0.056563,-0.097815l-0.256508 -0.957323c-0.00762205,-0.0362402 -0.0397756,-0.0634528 -0.0782835,-0.0634528l-1.06154 0z"/>
 </g>
</svg>
